<mxfile host="app.diagrams.net" modified="2020-05-13T16:52:23.309Z" agent="5.0 (Macintosh; Intel Mac OS X 10_15_1) AppleWebKit/537.36 (KHTML, like Gecko) Chrome/81.0.4044.138 Safari/537.36" etag="20KScAd-FWjedkekVItp" version="13.1.0" type="github" pages="7">
  <diagram id="_ShlFmsX2yYREbNZ5iUU" name="01 - k">
    <mxGraphModel dx="601" dy="296" grid="1" gridSize="10" guides="1" tooltips="1" connect="1" arrows="1" fold="1" page="1" pageScale="1" pageWidth="1920" pageHeight="1200" math="0" shadow="0">
      <root>
        <mxCell id="0" />
        <mxCell id="1" parent="0" />
        <mxCell id="0De4i5si7wRLfh8kBrNq-2" value="Continuous Integration and Continuous Deployment" style="rounded=0;whiteSpace=wrap;html=1;fillColor=#dae8fc;strokeColor=#6c8ebf;fontSize=23;fontStyle=1" vertex="1" parent="1">
          <mxGeometry x="590" y="290" width="340" height="110" as="geometry" />
        </mxCell>
      </root>
    </mxGraphModel>
  </diagram>
  <diagram id="s3LU48tYfjDM0hFMd4Xd" name="02 - cicd">
    <mxGraphModel dx="715" dy="352" grid="1" gridSize="10" guides="1" tooltips="1" connect="1" arrows="1" fold="1" page="1" pageScale="1" pageWidth="1920" pageHeight="1200" math="0" shadow="0">
      <root>
        <mxCell id="gf-BMft5PmmeYiOlkT97-0" />
        <mxCell id="gf-BMft5PmmeYiOlkT97-1" parent="gf-BMft5PmmeYiOlkT97-0" />
        <mxCell id="gf-BMft5PmmeYiOlkT97-4" style="edgeStyle=orthogonalEdgeStyle;rounded=0;orthogonalLoop=1;jettySize=auto;html=1;exitX=1;exitY=0.5;exitDx=0;exitDy=0;fontSize=23;" edge="1" parent="gf-BMft5PmmeYiOlkT97-1" source="gf-BMft5PmmeYiOlkT97-2" target="gf-BMft5PmmeYiOlkT97-3">
          <mxGeometry relative="1" as="geometry" />
        </mxCell>
        <mxCell id="gf-BMft5PmmeYiOlkT97-2" value="Continuous Integration" style="rounded=0;whiteSpace=wrap;html=1;fontSize=23;fillColor=#dae8fc;strokeColor=#6c8ebf;" vertex="1" parent="gf-BMft5PmmeYiOlkT97-1">
          <mxGeometry x="490" y="280" width="160" height="70" as="geometry" />
        </mxCell>
        <mxCell id="gf-BMft5PmmeYiOlkT97-3" value="It should be really easy to merge in changes from multiple teams to our main codebase" style="rounded=0;whiteSpace=wrap;html=1;fontSize=17;" vertex="1" parent="gf-BMft5PmmeYiOlkT97-1">
          <mxGeometry x="680" y="280" width="390" height="70" as="geometry" />
        </mxCell>
        <mxCell id="gf-BMft5PmmeYiOlkT97-5" style="edgeStyle=orthogonalEdgeStyle;rounded=0;orthogonalLoop=1;jettySize=auto;html=1;exitX=1;exitY=0.5;exitDx=0;exitDy=0;fontSize=23;" edge="1" parent="gf-BMft5PmmeYiOlkT97-1" source="gf-BMft5PmmeYiOlkT97-6" target="gf-BMft5PmmeYiOlkT97-7">
          <mxGeometry relative="1" as="geometry" />
        </mxCell>
        <mxCell id="gf-BMft5PmmeYiOlkT97-6" value="Continuous Deployment" style="rounded=0;whiteSpace=wrap;html=1;fontSize=23;fillColor=#dae8fc;strokeColor=#6c8ebf;" vertex="1" parent="gf-BMft5PmmeYiOlkT97-1">
          <mxGeometry x="490" y="370" width="160" height="70" as="geometry" />
        </mxCell>
        <mxCell id="gf-BMft5PmmeYiOlkT97-7" value="We should be able to deploy our changes very easily and in an automated style" style="rounded=0;whiteSpace=wrap;html=1;fontSize=17;" vertex="1" parent="gf-BMft5PmmeYiOlkT97-1">
          <mxGeometry x="680" y="370" width="390" height="70" as="geometry" />
        </mxCell>
      </root>
    </mxGraphModel>
  </diagram>
  <diagram id="-FeWekupKeT9eYS5V-uh" name="06 - teams">
    <mxGraphModel dx="668" dy="328" grid="1" gridSize="10" guides="1" tooltips="1" connect="1" arrows="1" fold="1" page="1" pageScale="1" pageWidth="1920" pageHeight="1200" math="0" shadow="0">
      <root>
        <mxCell id="XMad-avUg9MZqP47by01-0" />
        <mxCell id="XMad-avUg9MZqP47by01-1" parent="XMad-avUg9MZqP47by01-0" />
        <mxCell id="WuwJVwtk7l4hyi2skWhx-2" style="edgeStyle=orthogonalEdgeStyle;rounded=0;orthogonalLoop=1;jettySize=auto;html=1;exitX=1;exitY=0.5;exitDx=0;exitDy=0;fontSize=19;" edge="1" parent="XMad-avUg9MZqP47by01-1" source="WuwJVwtk7l4hyi2skWhx-0">
          <mxGeometry relative="1" as="geometry">
            <mxPoint x="640" y="240" as="targetPoint" />
          </mxGeometry>
        </mxCell>
        <mxCell id="WuwJVwtk7l4hyi2skWhx-0" value="Team 1" style="rounded=0;whiteSpace=wrap;html=1;fontSize=19;fillColor=#dae8fc;strokeColor=#6c8ebf;fontStyle=1" vertex="1" parent="XMad-avUg9MZqP47by01-1">
          <mxGeometry x="460" y="210" width="120" height="60" as="geometry" />
        </mxCell>
        <mxCell id="WuwJVwtk7l4hyi2skWhx-3" style="edgeStyle=orthogonalEdgeStyle;rounded=0;orthogonalLoop=1;jettySize=auto;html=1;exitX=1;exitY=0.5;exitDx=0;exitDy=0;fontSize=19;" edge="1" parent="XMad-avUg9MZqP47by01-1" source="WuwJVwtk7l4hyi2skWhx-1">
          <mxGeometry relative="1" as="geometry">
            <mxPoint x="640" y="330" as="targetPoint" />
          </mxGeometry>
        </mxCell>
        <mxCell id="WuwJVwtk7l4hyi2skWhx-1" value="Team 2" style="rounded=0;whiteSpace=wrap;html=1;fontSize=19;fillColor=#dae8fc;strokeColor=#6c8ebf;fontStyle=1" vertex="1" parent="XMad-avUg9MZqP47by01-1">
          <mxGeometry x="460" y="300" width="120" height="60" as="geometry" />
        </mxCell>
        <mxCell id="WuwJVwtk7l4hyi2skWhx-8" style="edgeStyle=orthogonalEdgeStyle;rounded=0;orthogonalLoop=1;jettySize=auto;html=1;exitX=1;exitY=0.5;exitDx=0;exitDy=0;fontSize=19;" edge="1" parent="XMad-avUg9MZqP47by01-1" source="WuwJVwtk7l4hyi2skWhx-4" target="WuwJVwtk7l4hyi2skWhx-7">
          <mxGeometry relative="1" as="geometry" />
        </mxCell>
        <mxCell id="WuwJVwtk7l4hyi2skWhx-4" value="Expiration Service" style="rounded=0;whiteSpace=wrap;html=1;fontSize=19;fillColor=#f5f5f5;strokeColor=#666666;fontStyle=1;fontColor=#333333;" vertex="1" parent="XMad-avUg9MZqP47by01-1">
          <mxGeometry x="640" y="210" width="120" height="60" as="geometry" />
        </mxCell>
        <mxCell id="WuwJVwtk7l4hyi2skWhx-9" style="edgeStyle=orthogonalEdgeStyle;rounded=0;orthogonalLoop=1;jettySize=auto;html=1;exitX=1;exitY=0.5;exitDx=0;exitDy=0;fontSize=19;" edge="1" parent="XMad-avUg9MZqP47by01-1" source="WuwJVwtk7l4hyi2skWhx-5" target="WuwJVwtk7l4hyi2skWhx-7">
          <mxGeometry relative="1" as="geometry" />
        </mxCell>
        <mxCell id="WuwJVwtk7l4hyi2skWhx-5" value="Tickets Service" style="rounded=0;whiteSpace=wrap;html=1;fontSize=19;fillColor=#f5f5f5;strokeColor=#666666;fontStyle=1;fontColor=#333333;" vertex="1" parent="XMad-avUg9MZqP47by01-1">
          <mxGeometry x="640" y="300" width="120" height="60" as="geometry" />
        </mxCell>
        <mxCell id="WuwJVwtk7l4hyi2skWhx-6" value="Production K8S Cluster" style="rounded=0;whiteSpace=wrap;html=1;fontSize=19;fillColor=#f5f5f5;strokeColor=#666666;fontStyle=1;fontColor=#333333;" vertex="1" parent="XMad-avUg9MZqP47by01-1">
          <mxGeometry x="840" y="210" width="280" height="30" as="geometry" />
        </mxCell>
        <mxCell id="WuwJVwtk7l4hyi2skWhx-7" value="" style="rounded=0;whiteSpace=wrap;html=1;fontSize=19;fillColor=#f5f5f5;strokeColor=#666666;fontStyle=1;fontColor=#333333;" vertex="1" parent="XMad-avUg9MZqP47by01-1">
          <mxGeometry x="840" y="240" width="280" height="120" as="geometry" />
        </mxCell>
        <mxCell id="WuwJVwtk7l4hyi2skWhx-10" value="Service" style="rounded=0;whiteSpace=wrap;html=1;fontSize=19;fontStyle=2;" vertex="1" parent="XMad-avUg9MZqP47by01-1">
          <mxGeometry x="865" y="250" width="100" height="40" as="geometry" />
        </mxCell>
        <mxCell id="WuwJVwtk7l4hyi2skWhx-11" value="Service" style="rounded=0;whiteSpace=wrap;html=1;fontSize=19;fontStyle=2;" vertex="1" parent="XMad-avUg9MZqP47by01-1">
          <mxGeometry x="995" y="250" width="100" height="40" as="geometry" />
        </mxCell>
        <mxCell id="WuwJVwtk7l4hyi2skWhx-12" value="Service" style="rounded=0;whiteSpace=wrap;html=1;fontSize=19;fontStyle=2;" vertex="1" parent="XMad-avUg9MZqP47by01-1">
          <mxGeometry x="865" y="310" width="100" height="40" as="geometry" />
        </mxCell>
        <mxCell id="WuwJVwtk7l4hyi2skWhx-13" value="Service" style="rounded=0;whiteSpace=wrap;html=1;fontSize=19;fontStyle=2;" vertex="1" parent="XMad-avUg9MZqP47by01-1">
          <mxGeometry x="995" y="310" width="100" height="40" as="geometry" />
        </mxCell>
      </root>
    </mxGraphModel>
  </diagram>
  <diagram name="06 - branch" id="c6HWxRq8sJ11rEYk5pmH">
    <mxGraphModel dx="715" dy="352" grid="1" gridSize="10" guides="1" tooltips="1" connect="1" arrows="1" fold="1" page="1" pageScale="1" pageWidth="1920" pageHeight="1200" math="0" shadow="0">
      <root>
        <mxCell id="efef7s39hfVOoQ_E5dqr-0" />
        <mxCell id="efef7s39hfVOoQ_E5dqr-1" parent="efef7s39hfVOoQ_E5dqr-0" />
        <mxCell id="efef7s39hfVOoQ_E5dqr-39" value="" style="rounded=0;whiteSpace=wrap;html=1;fontSize=19;fontStyle=1;fillColor=#f5f5f5;strokeColor=#666666;fontColor=#333333;" vertex="1" parent="efef7s39hfVOoQ_E5dqr-1">
          <mxGeometry x="750" y="460" width="260" height="500" as="geometry" />
        </mxCell>
        <mxCell id="efef7s39hfVOoQ_E5dqr-16" value="Local Machine" style="rounded=0;whiteSpace=wrap;html=1;fontSize=19;fontStyle=1;fillColor=#f5f5f5;strokeColor=#666666;fontColor=#333333;" vertex="1" parent="efef7s39hfVOoQ_E5dqr-1">
          <mxGeometry x="430" y="220" width="260" height="40" as="geometry" />
        </mxCell>
        <mxCell id="efef7s39hfVOoQ_E5dqr-18" value="" style="rounded=0;whiteSpace=wrap;html=1;fontSize=19;fontStyle=1;fillColor=#f5f5f5;strokeColor=#666666;fontColor=#333333;" vertex="1" parent="efef7s39hfVOoQ_E5dqr-1">
          <mxGeometry x="430" y="260" width="260" height="310" as="geometry" />
        </mxCell>
        <mxCell id="efef7s39hfVOoQ_E5dqr-21" style="edgeStyle=orthogonalEdgeStyle;rounded=0;orthogonalLoop=1;jettySize=auto;html=1;exitX=0.5;exitY=1;exitDx=0;exitDy=0;entryX=0.5;entryY=0;entryDx=0;entryDy=0;fontSize=19;" edge="1" parent="efef7s39hfVOoQ_E5dqr-1" source="efef7s39hfVOoQ_E5dqr-19" target="efef7s39hfVOoQ_E5dqr-20">
          <mxGeometry relative="1" as="geometry" />
        </mxCell>
        <mxCell id="efef7s39hfVOoQ_E5dqr-19" value="Make change to code for tickets service" style="rounded=0;whiteSpace=wrap;html=1;fontSize=18;fillColor=#dae8fc;strokeColor=#6c8ebf;" vertex="1" parent="efef7s39hfVOoQ_E5dqr-1">
          <mxGeometry x="440" y="275" width="240" height="80" as="geometry" />
        </mxCell>
        <mxCell id="efef7s39hfVOoQ_E5dqr-23" style="edgeStyle=orthogonalEdgeStyle;rounded=0;orthogonalLoop=1;jettySize=auto;html=1;exitX=0.5;exitY=1;exitDx=0;exitDy=0;entryX=0.5;entryY=0;entryDx=0;entryDy=0;fontSize=19;" edge="1" parent="efef7s39hfVOoQ_E5dqr-1" source="efef7s39hfVOoQ_E5dqr-20" target="efef7s39hfVOoQ_E5dqr-22">
          <mxGeometry relative="1" as="geometry" />
        </mxCell>
        <mxCell id="efef7s39hfVOoQ_E5dqr-20" value="Commit code to a git branch (any besides master!)" style="rounded=0;whiteSpace=wrap;html=1;fontSize=18;fillColor=#dae8fc;strokeColor=#6c8ebf;" vertex="1" parent="efef7s39hfVOoQ_E5dqr-1">
          <mxGeometry x="440" y="375" width="240" height="80" as="geometry" />
        </mxCell>
        <mxCell id="efef7s39hfVOoQ_E5dqr-22" value="Push branch to github" style="rounded=0;whiteSpace=wrap;html=1;fontSize=18;fillColor=#dae8fc;strokeColor=#6c8ebf;" vertex="1" parent="efef7s39hfVOoQ_E5dqr-1">
          <mxGeometry x="440" y="475" width="240" height="80" as="geometry" />
        </mxCell>
        <mxCell id="efef7s39hfVOoQ_E5dqr-25" value="Github" style="rounded=0;whiteSpace=wrap;html=1;fontSize=19;fontStyle=1;fillColor=#f5f5f5;strokeColor=#666666;fontColor=#333333;" vertex="1" parent="efef7s39hfVOoQ_E5dqr-1">
          <mxGeometry x="750" y="420" width="260" height="40" as="geometry" />
        </mxCell>
        <mxCell id="efef7s39hfVOoQ_E5dqr-33" style="edgeStyle=orthogonalEdgeStyle;rounded=0;orthogonalLoop=1;jettySize=auto;html=1;exitX=0.5;exitY=1;exitDx=0;exitDy=0;fontSize=18;" edge="1" parent="efef7s39hfVOoQ_E5dqr-1" source="efef7s39hfVOoQ_E5dqr-27" target="efef7s39hfVOoQ_E5dqr-29">
          <mxGeometry relative="1" as="geometry" />
        </mxCell>
        <mxCell id="efef7s39hfVOoQ_E5dqr-27" value="Github receives updated branch" style="rounded=0;whiteSpace=wrap;html=1;fontSize=18;fillColor=#dae8fc;strokeColor=#6c8ebf;" vertex="1" parent="efef7s39hfVOoQ_E5dqr-1">
          <mxGeometry x="760" y="475" width="240" height="80" as="geometry" />
        </mxCell>
        <mxCell id="efef7s39hfVOoQ_E5dqr-28" style="edgeStyle=orthogonalEdgeStyle;rounded=0;orthogonalLoop=1;jettySize=auto;html=1;exitX=1;exitY=0.5;exitDx=0;exitDy=0;fontSize=18;" edge="1" parent="efef7s39hfVOoQ_E5dqr-1" source="efef7s39hfVOoQ_E5dqr-22" target="efef7s39hfVOoQ_E5dqr-27">
          <mxGeometry relative="1" as="geometry" />
        </mxCell>
        <mxCell id="efef7s39hfVOoQ_E5dqr-34" style="edgeStyle=orthogonalEdgeStyle;rounded=0;orthogonalLoop=1;jettySize=auto;html=1;exitX=0.5;exitY=1;exitDx=0;exitDy=0;fontSize=18;" edge="1" parent="efef7s39hfVOoQ_E5dqr-1" source="efef7s39hfVOoQ_E5dqr-29" target="efef7s39hfVOoQ_E5dqr-31">
          <mxGeometry relative="1" as="geometry" />
        </mxCell>
        <mxCell id="efef7s39hfVOoQ_E5dqr-29" value="You manually create a pull request to merge branch into master" style="rounded=0;whiteSpace=wrap;html=1;fontSize=18;fillColor=#dae8fc;strokeColor=#6c8ebf;" vertex="1" parent="efef7s39hfVOoQ_E5dqr-1">
          <mxGeometry x="760" y="573" width="240" height="80" as="geometry" />
        </mxCell>
        <mxCell id="efef7s39hfVOoQ_E5dqr-36" style="edgeStyle=orthogonalEdgeStyle;rounded=0;orthogonalLoop=1;jettySize=auto;html=1;exitX=0.5;exitY=1;exitDx=0;exitDy=0;fontSize=18;" edge="1" parent="efef7s39hfVOoQ_E5dqr-1" source="efef7s39hfVOoQ_E5dqr-31" target="efef7s39hfVOoQ_E5dqr-35">
          <mxGeometry relative="1" as="geometry" />
        </mxCell>
        <mxCell id="efef7s39hfVOoQ_E5dqr-31" value="Github automatically runs tests for project" style="rounded=0;whiteSpace=wrap;html=1;fontSize=18;fillColor=#dae8fc;strokeColor=#6c8ebf;" vertex="1" parent="efef7s39hfVOoQ_E5dqr-1">
          <mxGeometry x="760" y="670" width="240" height="80" as="geometry" />
        </mxCell>
        <mxCell id="efef7s39hfVOoQ_E5dqr-38" style="edgeStyle=orthogonalEdgeStyle;rounded=0;orthogonalLoop=1;jettySize=auto;html=1;exitX=0.5;exitY=1;exitDx=0;exitDy=0;fontSize=18;" edge="1" parent="efef7s39hfVOoQ_E5dqr-1" source="efef7s39hfVOoQ_E5dqr-35" target="efef7s39hfVOoQ_E5dqr-37">
          <mxGeometry relative="1" as="geometry" />
        </mxCell>
        <mxCell id="efef7s39hfVOoQ_E5dqr-35" value="After tests pass, you merge the PR into master branch" style="rounded=0;whiteSpace=wrap;html=1;fontSize=18;fillColor=#dae8fc;strokeColor=#6c8ebf;" vertex="1" parent="efef7s39hfVOoQ_E5dqr-1">
          <mxGeometry x="760" y="770" width="240" height="80" as="geometry" />
        </mxCell>
        <mxCell id="efef7s39hfVOoQ_E5dqr-37" value="Because master branch has changed, github builds and deploys" style="rounded=0;whiteSpace=wrap;html=1;fontSize=18;fillColor=#dae8fc;strokeColor=#6c8ebf;" vertex="1" parent="efef7s39hfVOoQ_E5dqr-1">
          <mxGeometry x="760" y="870" width="240" height="80" as="geometry" />
        </mxCell>
      </root>
    </mxGraphModel>
  </diagram>
  <diagram id="WplA7KGuBLmxYdvJw9bG" name="04 - mono">
    <mxGraphModel dx="601" dy="296" grid="1" gridSize="10" guides="1" tooltips="1" connect="1" arrows="1" fold="1" page="1" pageScale="1" pageWidth="1920" pageHeight="1200" math="0" shadow="0">
      <root>
        <mxCell id="fDopvZmIRapMc9shfOSc-0" />
        <mxCell id="fDopvZmIRapMc9shfOSc-1" parent="fDopvZmIRapMc9shfOSc-0" />
        <mxCell id="fDopvZmIRapMc9shfOSc-8" value="" style="rounded=0;whiteSpace=wrap;html=1;fontSize=20;fillColor=#dae8fc;strokeColor=#6c8ebf;" vertex="1" parent="fDopvZmIRapMc9shfOSc-1">
          <mxGeometry x="660" y="290" width="270" height="160" as="geometry" />
        </mxCell>
        <mxCell id="fDopvZmIRapMc9shfOSc-2" value="auth" style="rounded=0;whiteSpace=wrap;html=1;fontSize=20;fontStyle=0;fillColor=#f5f5f5;strokeColor=#666666;fontColor=#333333;" vertex="1" parent="fDopvZmIRapMc9shfOSc-1">
          <mxGeometry x="675" y="300" width="110" height="40" as="geometry" />
        </mxCell>
        <mxCell id="fDopvZmIRapMc9shfOSc-3" value="client" style="rounded=0;whiteSpace=wrap;html=1;fontSize=20;fontStyle=0;fillColor=#f5f5f5;strokeColor=#666666;fontColor=#333333;" vertex="1" parent="fDopvZmIRapMc9shfOSc-1">
          <mxGeometry x="675" y="350" width="110" height="40" as="geometry" />
        </mxCell>
        <mxCell id="fDopvZmIRapMc9shfOSc-4" value="expiration" style="rounded=0;whiteSpace=wrap;html=1;fontSize=20;fontStyle=0;fillColor=#f5f5f5;strokeColor=#666666;fontColor=#333333;" vertex="1" parent="fDopvZmIRapMc9shfOSc-1">
          <mxGeometry x="675" y="400" width="110" height="40" as="geometry" />
        </mxCell>
        <mxCell id="fDopvZmIRapMc9shfOSc-5" value="orders" style="rounded=0;whiteSpace=wrap;html=1;fontSize=20;fontStyle=0;fillColor=#f5f5f5;strokeColor=#666666;fontColor=#333333;" vertex="1" parent="fDopvZmIRapMc9shfOSc-1">
          <mxGeometry x="805" y="400" width="110" height="40" as="geometry" />
        </mxCell>
        <mxCell id="fDopvZmIRapMc9shfOSc-6" value="payments" style="rounded=0;whiteSpace=wrap;html=1;fontSize=20;fontStyle=0;fillColor=#f5f5f5;strokeColor=#666666;fontColor=#333333;" vertex="1" parent="fDopvZmIRapMc9shfOSc-1">
          <mxGeometry x="805" y="350" width="110" height="40" as="geometry" />
        </mxCell>
        <mxCell id="fDopvZmIRapMc9shfOSc-7" value="tickets" style="rounded=0;whiteSpace=wrap;html=1;fontSize=20;fontStyle=0;fillColor=#f5f5f5;strokeColor=#666666;fontColor=#333333;" vertex="1" parent="fDopvZmIRapMc9shfOSc-1">
          <mxGeometry x="805" y="300" width="110" height="40" as="geometry" />
        </mxCell>
        <mxCell id="fDopvZmIRapMc9shfOSc-9" value="&lt;b&gt;Single Git Repository&lt;/b&gt;" style="rounded=0;whiteSpace=wrap;html=1;fontSize=20;fillColor=#dae8fc;strokeColor=#6c8ebf;" vertex="1" parent="fDopvZmIRapMc9shfOSc-1">
          <mxGeometry x="660" y="240" width="270" height="50" as="geometry" />
        </mxCell>
        <mxCell id="fDopvZmIRapMc9shfOSc-11" value="&lt;i&gt;Mono Repo Approach&lt;/i&gt;" style="text;html=1;strokeColor=none;fillColor=none;align=center;verticalAlign=middle;whiteSpace=wrap;rounded=0;fontSize=20;" vertex="1" parent="fDopvZmIRapMc9shfOSc-1">
          <mxGeometry x="687.5" y="210" width="215" height="20" as="geometry" />
        </mxCell>
      </root>
    </mxGraphModel>
  </diagram>
  <diagram name="05 - multi" id="Im7xLdWKOwYbYxXcL7KU">
    <mxGraphModel dx="589" dy="290" grid="1" gridSize="10" guides="1" tooltips="1" connect="1" arrows="1" fold="1" page="1" pageScale="1" pageWidth="1920" pageHeight="1200" math="0" shadow="0">
      <root>
        <mxCell id="xyrkN9s91xBhvWWTPoDW-0" />
        <mxCell id="xyrkN9s91xBhvWWTPoDW-1" parent="xyrkN9s91xBhvWWTPoDW-0" />
        <mxCell id="xyrkN9s91xBhvWWTPoDW-2" value="" style="rounded=0;whiteSpace=wrap;html=1;fontSize=20;fillColor=#dae8fc;strokeColor=#6c8ebf;" vertex="1" parent="xyrkN9s91xBhvWWTPoDW-1">
          <mxGeometry x="570" y="270" width="150" height="60" as="geometry" />
        </mxCell>
        <mxCell id="xyrkN9s91xBhvWWTPoDW-3" value="auth" style="rounded=0;whiteSpace=wrap;html=1;fontSize=20;fontStyle=0;fillColor=#f5f5f5;strokeColor=#666666;fontColor=#333333;" vertex="1" parent="xyrkN9s91xBhvWWTPoDW-1">
          <mxGeometry x="590" y="280" width="110" height="40" as="geometry" />
        </mxCell>
        <mxCell id="xyrkN9s91xBhvWWTPoDW-9" value="&lt;b&gt;Git Repository&lt;/b&gt;" style="rounded=0;whiteSpace=wrap;html=1;fontSize=20;fillColor=#dae8fc;strokeColor=#6c8ebf;" vertex="1" parent="xyrkN9s91xBhvWWTPoDW-1">
          <mxGeometry x="570" y="240" width="150" height="30" as="geometry" />
        </mxCell>
        <mxCell id="xyrkN9s91xBhvWWTPoDW-10" value="&lt;i&gt;Repo-Per-Service Approach&lt;/i&gt;" style="text;html=1;strokeColor=none;fillColor=none;align=center;verticalAlign=middle;whiteSpace=wrap;rounded=0;fontSize=20;" vertex="1" parent="xyrkN9s91xBhvWWTPoDW-1">
          <mxGeometry x="663.75" y="200" width="302.5" height="20" as="geometry" />
        </mxCell>
        <mxCell id="xyrkN9s91xBhvWWTPoDW-11" value="" style="rounded=0;whiteSpace=wrap;html=1;fontSize=20;fillColor=#dae8fc;strokeColor=#6c8ebf;" vertex="1" parent="xyrkN9s91xBhvWWTPoDW-1">
          <mxGeometry x="740" y="270" width="150" height="60" as="geometry" />
        </mxCell>
        <mxCell id="xyrkN9s91xBhvWWTPoDW-12" value="&lt;b&gt;Git Repository&lt;/b&gt;" style="rounded=0;whiteSpace=wrap;html=1;fontSize=20;fillColor=#dae8fc;strokeColor=#6c8ebf;" vertex="1" parent="xyrkN9s91xBhvWWTPoDW-1">
          <mxGeometry x="740" y="240" width="150" height="30" as="geometry" />
        </mxCell>
        <mxCell id="xyrkN9s91xBhvWWTPoDW-13" value="" style="rounded=0;whiteSpace=wrap;html=1;fontSize=20;fillColor=#dae8fc;strokeColor=#6c8ebf;" vertex="1" parent="xyrkN9s91xBhvWWTPoDW-1">
          <mxGeometry x="910" y="270" width="150" height="60" as="geometry" />
        </mxCell>
        <mxCell id="xyrkN9s91xBhvWWTPoDW-14" value="&lt;b&gt;Git Repository&lt;/b&gt;" style="rounded=0;whiteSpace=wrap;html=1;fontSize=20;fillColor=#dae8fc;strokeColor=#6c8ebf;" vertex="1" parent="xyrkN9s91xBhvWWTPoDW-1">
          <mxGeometry x="910" y="240" width="150" height="30" as="geometry" />
        </mxCell>
        <mxCell id="xyrkN9s91xBhvWWTPoDW-15" value="" style="rounded=0;whiteSpace=wrap;html=1;fontSize=20;fillColor=#dae8fc;strokeColor=#6c8ebf;" vertex="1" parent="xyrkN9s91xBhvWWTPoDW-1">
          <mxGeometry x="570" y="380" width="150" height="60" as="geometry" />
        </mxCell>
        <mxCell id="xyrkN9s91xBhvWWTPoDW-16" value="&lt;b&gt;Git Repository&lt;/b&gt;" style="rounded=0;whiteSpace=wrap;html=1;fontSize=20;fillColor=#dae8fc;strokeColor=#6c8ebf;" vertex="1" parent="xyrkN9s91xBhvWWTPoDW-1">
          <mxGeometry x="570" y="350" width="150" height="30" as="geometry" />
        </mxCell>
        <mxCell id="xyrkN9s91xBhvWWTPoDW-17" value="" style="rounded=0;whiteSpace=wrap;html=1;fontSize=20;fillColor=#dae8fc;strokeColor=#6c8ebf;" vertex="1" parent="xyrkN9s91xBhvWWTPoDW-1">
          <mxGeometry x="740" y="380" width="150" height="60" as="geometry" />
        </mxCell>
        <mxCell id="xyrkN9s91xBhvWWTPoDW-18" value="&lt;b&gt;Git Repository&lt;/b&gt;" style="rounded=0;whiteSpace=wrap;html=1;fontSize=20;fillColor=#dae8fc;strokeColor=#6c8ebf;" vertex="1" parent="xyrkN9s91xBhvWWTPoDW-1">
          <mxGeometry x="740" y="350" width="150" height="30" as="geometry" />
        </mxCell>
        <mxCell id="xyrkN9s91xBhvWWTPoDW-19" value="" style="rounded=0;whiteSpace=wrap;html=1;fontSize=20;fillColor=#dae8fc;strokeColor=#6c8ebf;" vertex="1" parent="xyrkN9s91xBhvWWTPoDW-1">
          <mxGeometry x="910" y="380" width="150" height="60" as="geometry" />
        </mxCell>
        <mxCell id="xyrkN9s91xBhvWWTPoDW-20" value="&lt;b&gt;Git Repository&lt;/b&gt;" style="rounded=0;whiteSpace=wrap;html=1;fontSize=20;fillColor=#dae8fc;strokeColor=#6c8ebf;" vertex="1" parent="xyrkN9s91xBhvWWTPoDW-1">
          <mxGeometry x="910" y="350" width="150" height="30" as="geometry" />
        </mxCell>
        <mxCell id="xyrkN9s91xBhvWWTPoDW-4" value="client" style="rounded=0;whiteSpace=wrap;html=1;fontSize=20;fontStyle=0;fillColor=#f5f5f5;strokeColor=#666666;fontColor=#333333;" vertex="1" parent="xyrkN9s91xBhvWWTPoDW-1">
          <mxGeometry x="590" y="390" width="110" height="40" as="geometry" />
        </mxCell>
        <mxCell id="xyrkN9s91xBhvWWTPoDW-5" value="expiration" style="rounded=0;whiteSpace=wrap;html=1;fontSize=20;fontStyle=0;fillColor=#f5f5f5;strokeColor=#666666;fontColor=#333333;" vertex="1" parent="xyrkN9s91xBhvWWTPoDW-1">
          <mxGeometry x="760" y="390" width="110" height="40" as="geometry" />
        </mxCell>
        <mxCell id="xyrkN9s91xBhvWWTPoDW-6" value="orders" style="rounded=0;whiteSpace=wrap;html=1;fontSize=20;fontStyle=0;fillColor=#f5f5f5;strokeColor=#666666;fontColor=#333333;" vertex="1" parent="xyrkN9s91xBhvWWTPoDW-1">
          <mxGeometry x="930" y="390" width="110" height="40" as="geometry" />
        </mxCell>
        <mxCell id="xyrkN9s91xBhvWWTPoDW-7" value="payments" style="rounded=0;whiteSpace=wrap;html=1;fontSize=20;fontStyle=0;fillColor=#f5f5f5;strokeColor=#666666;fontColor=#333333;" vertex="1" parent="xyrkN9s91xBhvWWTPoDW-1">
          <mxGeometry x="930" y="280" width="110" height="40" as="geometry" />
        </mxCell>
        <mxCell id="xyrkN9s91xBhvWWTPoDW-8" value="tickets" style="rounded=0;whiteSpace=wrap;html=1;fontSize=20;fontStyle=0;fillColor=#f5f5f5;strokeColor=#666666;fontColor=#333333;" vertex="1" parent="xyrkN9s91xBhvWWTPoDW-1">
          <mxGeometry x="760" y="280" width="110" height="40" as="geometry" />
        </mxCell>
      </root>
    </mxGraphModel>
  </diagram>
  <diagram id="psAAJa-nwGlDAfqwGDuT" name="03 - flow">
    <mxGraphModel dx="715" dy="352" grid="1" gridSize="10" guides="1" tooltips="1" connect="1" arrows="1" fold="1" page="1" pageScale="1" pageWidth="1920" pageHeight="1200" math="0" shadow="0">
      <root>
        <mxCell id="PLMneomyuuvM4S9VTAHf-0" />
        <mxCell id="PLMneomyuuvM4S9VTAHf-1" parent="PLMneomyuuvM4S9VTAHf-0" />
        <mxCell id="PLMneomyuuvM4S9VTAHf-5" style="edgeStyle=orthogonalEdgeStyle;rounded=0;orthogonalLoop=1;jettySize=auto;html=1;exitX=0.5;exitY=1;exitDx=0;exitDy=0;fontSize=23;" edge="1" parent="PLMneomyuuvM4S9VTAHf-1" source="PLMneomyuuvM4S9VTAHf-2" target="PLMneomyuuvM4S9VTAHf-3">
          <mxGeometry relative="1" as="geometry" />
        </mxCell>
        <mxCell id="PLMneomyuuvM4S9VTAHf-6" style="edgeStyle=orthogonalEdgeStyle;rounded=0;orthogonalLoop=1;jettySize=auto;html=1;exitX=0.5;exitY=1;exitDx=0;exitDy=0;fontSize=23;" edge="1" parent="PLMneomyuuvM4S9VTAHf-1" source="PLMneomyuuvM4S9VTAHf-2" target="PLMneomyuuvM4S9VTAHf-4">
          <mxGeometry relative="1" as="geometry" />
        </mxCell>
        <mxCell id="PLMneomyuuvM4S9VTAHf-2" value="How do we organize our services with version control (git)?" style="rounded=0;whiteSpace=wrap;html=1;fontSize=24;fillColor=#dae8fc;strokeColor=#6c8ebf;fontStyle=1" vertex="1" parent="PLMneomyuuvM4S9VTAHf-1">
          <mxGeometry x="540" y="250" width="430" height="110" as="geometry" />
        </mxCell>
        <mxCell id="PLMneomyuuvM4S9VTAHf-3" value="Mono Repo" style="rounded=0;whiteSpace=wrap;html=1;fontSize=23;fontStyle=0" vertex="1" parent="PLMneomyuuvM4S9VTAHf-1">
          <mxGeometry x="540" y="410" width="190" height="80" as="geometry" />
        </mxCell>
        <mxCell id="PLMneomyuuvM4S9VTAHf-4" value="Repo-Per-Service" style="rounded=0;whiteSpace=wrap;html=1;fontSize=23;fontStyle=0" vertex="1" parent="PLMneomyuuvM4S9VTAHf-1">
          <mxGeometry x="780" y="410" width="190" height="80" as="geometry" />
        </mxCell>
      </root>
    </mxGraphModel>
  </diagram>
</mxfile>
